<svg id="Layer_1" data-name="Layer 1" xmlns="http://www.w3.org/2000/svg" width="1500" height="1500" viewBox="0 0 1500 1500"><defs><style>.cls-1{fill:#fff;}</style></defs><path class="cls-1" d="M749.87,169.65l.13.07v-.15Z"/><path class="cls-1" d="M749.74,169.57v.15l.13-.07Z"/><polygon class="cls-1" points="1024 459.243 1024 719.194 877.65 634.693 877.65 543.736 750 470.041 622.35 543.736 622.35 634.693 476 719.194 476 459.243 750 301.047 1024 459.243"/><polygon class="cls-1" points="877.65 1007.308 1024 1091.801 1024 1091.907 750 1250.103 476 1091.907 476 1091.801 622.35 1007.308 622.35 1007.414 750 1081.118 877.65 1007.414 877.65 1007.308"/><polygon class="cls-1" points="1024 775.522 1024 1035.473 877.65 950.972 877.65 860.121 750 933.824 622.35 860.121 622.35 950.972 476 1035.473 476 775.522 622.35 691.029 622.35 691.135 750 764.839 877.65 691.135 877.65 691.029 1024 775.522"/></svg>