<svg id="Layer_1" data-name="Layer 1" xmlns="http://www.w3.org/2000/svg" viewBox="0 0 1500 1500"><path class="cls-1" d="M749.87,169.65l.13.07v-.15Z"/><path class="cls-1" d="M749.74,169.57v.15l.13-.07Z"/><polygon class="cls-1" points="1024 459.24 1024 719.19 877.65 634.69 877.65 543.74 750 470.04 622.35 543.74 622.35 634.69 476 719.19 476 459.24 750 301.05 1024 459.24"/><polygon class="cls-1" points="877.65 1007.31 1024 1091.8 1024 1091.91 750 1250.1 476 1091.91 476 1091.8 622.35 1007.31 622.35 1007.41 750 1081.12 877.65 1007.41 877.65 1007.31"/><polygon class="cls-1" points="1024 775.52 1024 1035.47 877.65 950.97 877.65 860.12 750 933.82 622.35 860.12 622.35 950.97 476 1035.47 476 775.52 622.35 691.03 622.35 691.13 750 764.84 877.65 691.13 877.65 691.03 1024 775.52"/></svg>